<svg width="640" height="640" viewBox="0 0 640 640" fill="none" xmlns="http://www.w3.org/2000/svg">
  <path
    d="M561.561 502.767C577.638 469.927 586 433.801 586 397.184C586 323.143 528.973 112.509 261.577 98.4664C283.121 110.381 285.655 127.572 285.655 152.082C206.239 126.125 117.361 92.8494 148.789 4C28.1443 129.615 45.6184 296.335 123.444 335.909C98.098 335.909 71.4852 328.249 61.3469 305.271C32.1995 379.312 85.931 598.081 291.992 632.074C328.743 638.136 359.6 638.46 395.252 631.316C430.903 624.173 464.446 608.864 493.284 586.573C522.122 564.282 545.484 535.607 561.561 502.767Z"
    fill="#1269F4"/>
  <circle cx="341.568" cy="392.216" r="143.784" fill="#1E1E1E"/>
  <circle cx="330.784" cy="381.432" r="140.189" fill="white"/>
</svg>
