<svg width="346" height="109" viewBox="0 0 346 109" fill="none" xmlns="http://www.w3.org/2000/svg">
  <rect x="0.5" y="26.5" width="345" height="82" rx="4.5" fill="url(#paint0_linear_0_1)" stroke="url(#paint1_linear_0_1)"/>
  <path d="M61.7067 77V57.3636H69.5689C71.0135 57.3636 72.2184 57.5778 73.1836 58.006C74.1488 58.4343 74.8743 59.0288 75.3601 59.7894C75.8459 60.5437 76.0888 61.413 76.0888 62.3974C76.0888 63.1644 75.9354 63.8388 75.6286 64.4205C75.3217 64.9957 74.8999 65.4687 74.3629 65.8395C73.8324 66.2038 73.2251 66.4627 72.5412 66.6161V66.8079C73.2891 66.8398 73.989 67.0508 74.641 67.4407C75.2994 67.8306 75.8331 68.3771 76.2422 69.0803C76.6513 69.777 76.8558 70.608 76.8558 71.5732C76.8558 72.6151 76.5969 73.5451 76.0792 74.3633C75.5678 75.1751 74.8104 75.8175 73.8068 76.2905C72.8033 76.7635 71.5664 77 70.0962 77H61.7067ZM65.8583 73.6058H69.2429C70.3999 73.6058 71.2436 73.3853 71.7741 72.9442C72.3047 72.4968 72.57 71.9023 72.57 71.1609C72.57 70.6175 72.4389 70.1381 72.1768 69.7227C71.9148 69.3072 71.5408 68.9812 71.055 68.7447C70.5756 68.5082 70.0036 68.3899 69.3388 68.3899H65.8583V73.6058ZM65.8583 65.5806H68.9361C69.505 65.5806 70.0099 65.4815 70.451 65.2834C70.8984 65.0788 71.25 64.7912 71.5057 64.4205C71.7678 64.0497 71.8988 63.6055 71.8988 63.0877C71.8988 62.3782 71.6463 61.8061 71.1413 61.3714C70.6428 60.9368 69.9332 60.7195 69.0128 60.7195H65.8583V65.5806ZM86.1922 77.2876C84.6773 77.2876 83.3733 76.9808 82.2803 76.3672C81.1936 75.7472 80.3563 74.8714 79.7682 73.7401C79.1801 72.6023 78.8861 71.2567 78.8861 69.7035C78.8861 68.1886 79.1801 66.859 79.7682 65.7148C80.3563 64.5707 81.184 63.679 82.2515 63.0398C83.3254 62.4006 84.5846 62.081 86.0292 62.081C87.0008 62.081 87.9053 62.2376 88.7426 62.5508C89.5864 62.8576 90.3215 63.321 90.9479 63.9411C91.5807 64.5611 92.0729 65.3409 92.4245 66.2805C92.776 67.2138 92.9518 68.3068 92.9518 69.5597V70.6815H80.5161V68.1502H89.107C89.107 67.5621 88.9791 67.0412 88.7235 66.5874C88.4678 66.1335 88.113 65.7788 87.6592 65.5231C87.2117 65.261 86.6908 65.13 86.0963 65.13C85.4763 65.13 84.9266 65.2738 84.4472 65.5614C83.9742 65.8427 83.6034 66.223 83.335 66.7024C83.0665 67.1754 82.9291 67.7028 82.9227 68.2844V70.6911C82.9227 71.4197 83.0569 72.0494 83.3254 72.5799C83.6002 73.1104 83.9869 73.5195 84.4855 73.8072C84.9841 74.0948 85.5754 74.2386 86.2593 74.2386C86.7132 74.2386 87.1286 74.1747 87.5058 74.0469C87.8829 73.919 88.2057 73.7273 88.4742 73.4716C88.7426 73.2159 88.9472 72.9027 89.0878 72.532L92.8655 72.7812C92.6737 73.6889 92.2806 74.4815 91.6862 75.1591C91.0981 75.8303 90.3374 76.3544 89.4042 76.7315C88.4774 77.1023 87.4067 77.2876 86.1922 77.2876ZM102.271 77.2876C100.763 77.2876 99.4653 76.968 98.3786 76.3288C97.2984 75.6832 96.4674 74.7884 95.8857 73.6442C95.3105 72.5 95.0228 71.1832 95.0228 69.6939C95.0228 68.1854 95.3137 66.8622 95.8953 65.7244C96.4834 64.5803 97.3176 63.6886 98.3978 63.0494C99.4781 62.4038 100.763 62.081 102.252 62.081C103.537 62.081 104.662 62.3143 105.627 62.7809C106.592 63.2475 107.356 63.9027 107.919 64.7464C108.481 65.5902 108.791 66.581 108.849 67.7188H104.994C104.886 66.9837 104.598 66.3924 104.131 65.945C103.671 65.4911 103.067 65.2642 102.319 65.2642C101.687 65.2642 101.134 65.4368 100.661 65.782C100.194 66.1207 99.8296 66.6161 99.5676 67.2681C99.3055 67.9201 99.1744 68.7095 99.1744 69.6364C99.1744 70.576 99.3023 71.375 99.558 72.0334C99.82 72.6918 100.188 73.1935 100.661 73.5387C101.134 73.8839 101.687 74.0565 102.319 74.0565C102.786 74.0565 103.205 73.9606 103.575 73.7688C103.953 73.5771 104.263 73.299 104.505 72.9347C104.755 72.5639 104.918 72.1197 104.994 71.6019H108.849C108.785 72.7269 108.478 73.7177 107.928 74.5742C107.385 75.4244 106.634 76.0891 105.675 76.5685C104.716 77.0479 103.582 77.2876 102.271 77.2876ZM118.118 77.2876C116.629 77.2876 115.341 76.9712 114.254 76.3384C113.174 75.6992 112.34 74.8107 111.752 73.6729C111.164 72.5288 110.869 71.2024 110.869 69.6939C110.869 68.1726 111.164 66.843 111.752 65.7053C112.34 64.5611 113.174 63.6726 114.254 63.0398C115.341 62.4006 116.629 62.081 118.118 62.081C119.607 62.081 120.892 62.4006 121.972 63.0398C123.059 63.6726 123.896 64.5611 124.485 65.7053C125.073 66.843 125.367 68.1726 125.367 69.6939C125.367 71.2024 125.073 72.5288 124.485 73.6729C123.896 74.8107 123.059 75.6992 121.972 76.3384C120.892 76.9712 119.607 77.2876 118.118 77.2876ZM118.137 74.1236C118.815 74.1236 119.381 73.9318 119.834 73.5483C120.288 73.1584 120.63 72.6278 120.86 71.9567C121.097 71.2855 121.215 70.5217 121.215 69.6651C121.215 68.8086 121.097 68.0447 120.86 67.3736C120.63 66.7024 120.288 66.1719 119.834 65.782C119.381 65.392 118.815 65.1971 118.137 65.1971C117.453 65.1971 116.878 65.392 116.411 65.782C115.951 66.1719 115.603 66.7024 115.366 67.3736C115.136 68.0447 115.021 68.8086 115.021 69.6651C115.021 70.5217 115.136 71.2855 115.366 71.9567C115.603 72.6278 115.951 73.1584 116.411 73.5483C116.878 73.9318 117.453 74.1236 118.137 74.1236ZM128.023 77V62.2727H131.915V64.8711H132.088C132.395 64.0082 132.906 63.3274 133.622 62.8288C134.338 62.3303 135.194 62.081 136.192 62.081C137.202 62.081 138.061 62.3335 138.771 62.8384C139.48 63.337 139.953 64.0146 140.19 64.8711H140.343C140.644 64.0273 141.187 63.353 141.973 62.848C142.766 62.3366 143.702 62.081 144.782 62.081C146.157 62.081 147.272 62.5188 148.129 63.3945C148.992 64.2638 149.423 65.4975 149.423 67.0955V77H145.348V67.9009C145.348 67.0827 145.131 66.4691 144.696 66.06C144.262 65.6509 143.718 65.4464 143.066 65.4464C142.325 65.4464 141.746 65.6829 141.331 66.1559C140.915 66.6225 140.708 67.2393 140.708 68.0064V77H136.748V67.8146C136.748 67.0923 136.54 66.517 136.124 66.0888C135.715 65.6605 135.175 65.4464 134.504 65.4464C134.05 65.4464 133.641 65.5614 133.277 65.7915C132.919 66.0153 132.634 66.3317 132.423 66.7408C132.213 67.1435 132.107 67.6165 132.107 68.1598V77H128.023ZM159.361 77.2876C157.846 77.2876 156.542 76.9808 155.449 76.3672C154.363 75.7472 153.525 74.8714 152.937 73.7401C152.349 72.6023 152.055 71.2567 152.055 69.7035C152.055 68.1886 152.349 66.859 152.937 65.7148C153.525 64.5707 154.353 63.679 155.42 63.0398C156.494 62.4006 157.754 62.081 159.198 62.081C160.17 62.081 161.074 62.2376 161.912 62.5508C162.755 62.8576 163.49 63.321 164.117 63.9411C164.75 64.5611 165.242 65.3409 165.593 66.2805C165.945 67.2138 166.121 68.3068 166.121 69.5597V70.6815H153.685V68.1502H162.276C162.276 67.5621 162.148 67.0412 161.892 66.5874C161.637 66.1335 161.282 65.7788 160.828 65.5231C160.381 65.261 159.86 65.13 159.265 65.13C158.645 65.13 158.096 65.2738 157.616 65.5614C157.143 65.8427 156.772 66.223 156.504 66.7024C156.235 67.1754 156.098 67.7028 156.092 68.2844V70.6911C156.092 71.4197 156.226 72.0494 156.494 72.5799C156.769 73.1104 157.156 73.5195 157.654 73.8072C158.153 74.0948 158.744 74.2386 159.428 74.2386C159.882 74.2386 160.298 74.1747 160.675 74.0469C161.052 73.919 161.375 73.7273 161.643 73.4716C161.912 73.2159 162.116 72.9027 162.257 72.532L166.034 72.7812C165.843 73.6889 165.45 74.4815 164.855 75.1591C164.267 75.8303 163.506 76.3544 162.573 76.7315C161.646 77.1023 160.576 77.2876 159.361 77.2876ZM179.235 77.2781C178.295 77.2781 177.458 77.1151 176.723 76.7891C175.988 76.4567 175.406 75.9677 174.978 75.3221C174.556 74.6701 174.345 73.8583 174.345 72.8867C174.345 72.0685 174.495 71.3814 174.796 70.8253C175.096 70.2692 175.505 69.8217 176.023 69.483C176.541 69.1442 177.129 68.8885 177.787 68.7159C178.452 68.5433 179.149 68.4219 179.877 68.3516C180.734 68.2621 181.424 68.179 181.948 68.1023C182.472 68.0192 182.853 67.8977 183.089 67.7379C183.326 67.5781 183.444 67.3416 183.444 67.0284V66.9709C183.444 66.3636 183.252 65.8938 182.869 65.5614C182.492 65.229 181.955 65.0629 181.258 65.0629C180.523 65.0629 179.938 65.2259 179.503 65.5518C179.069 65.8714 178.781 66.2741 178.64 66.7599L174.863 66.4531C175.054 65.5582 175.432 64.7848 175.994 64.1328C176.557 63.4744 177.282 62.9695 178.171 62.6179C179.065 62.2599 180.101 62.081 181.277 62.081C182.095 62.081 182.878 62.1768 183.626 62.3686C184.38 62.5604 185.048 62.8576 185.63 63.2603C186.218 63.663 186.682 64.1808 187.02 64.8136C187.359 65.44 187.528 66.1911 187.528 67.0668V77H183.655V74.9577H183.54C183.303 75.418 182.987 75.8239 182.591 76.1754C182.194 76.5206 181.718 76.7923 181.162 76.9904C180.606 77.1822 179.964 77.2781 179.235 77.2781ZM180.405 74.4592C181.005 74.4592 181.536 74.3409 181.996 74.1044C182.456 73.8615 182.818 73.5355 183.08 73.1264C183.342 72.7173 183.473 72.2539 183.473 71.7362V70.1733C183.345 70.2564 183.169 70.3331 182.945 70.4034C182.728 70.4673 182.482 70.5281 182.207 70.5856C181.932 70.6367 181.657 70.6847 181.383 70.7294C181.108 70.7678 180.858 70.8029 180.635 70.8349C180.155 70.9052 179.737 71.017 179.379 71.1705C179.021 71.3239 178.743 71.5316 178.544 71.7937C178.346 72.0494 178.247 72.369 178.247 72.7525C178.247 73.3086 178.449 73.7337 178.851 74.0277C179.26 74.3153 179.778 74.4592 180.405 74.4592ZM197.023 77V57.3636H204.885C206.33 57.3636 207.535 57.5778 208.5 58.006C209.465 58.4343 210.191 59.0288 210.676 59.7894C211.162 60.5437 211.405 61.413 211.405 62.3974C211.405 63.1644 211.252 63.8388 210.945 64.4205C210.638 64.9957 210.216 65.4687 209.679 65.8395C209.149 66.2038 208.542 66.4627 207.858 66.6161V66.8079C208.605 66.8398 209.305 67.0508 209.957 67.4407C210.616 67.8306 211.15 68.3771 211.559 69.0803C211.968 69.777 212.172 70.608 212.172 71.5732C212.172 72.6151 211.913 73.5451 211.396 74.3633C210.884 75.1751 210.127 75.8175 209.123 76.2905C208.12 76.7635 206.883 77 205.413 77H197.023ZM201.175 73.6058H204.559C205.716 73.6058 206.56 73.3853 207.091 72.9442C207.621 72.4968 207.886 71.9023 207.886 71.1609C207.886 70.6175 207.755 70.1381 207.493 69.7227C207.231 69.3072 206.857 68.9812 206.371 68.7447C205.892 68.5082 205.32 68.3899 204.655 68.3899H201.175V73.6058ZM201.175 65.5806H204.252C204.821 65.5806 205.326 65.4815 205.767 65.2834C206.215 65.0788 206.566 64.7912 206.822 64.4205C207.084 64.0497 207.215 63.6055 207.215 63.0877C207.215 62.3782 206.963 61.8061 206.458 61.3714C205.959 60.9368 205.25 60.7195 204.329 60.7195H201.175V65.5806ZM218.997 77.2781C218.057 77.2781 217.22 77.1151 216.484 76.7891C215.749 76.4567 215.168 75.9677 214.739 75.3221C214.318 74.6701 214.107 73.8583 214.107 72.8867C214.107 72.0685 214.257 71.3814 214.557 70.8253C214.858 70.2692 215.267 69.8217 215.785 69.483C216.302 69.1442 216.89 68.8885 217.549 68.7159C218.214 68.5433 218.91 68.4219 219.639 68.3516C220.495 68.2621 221.186 68.179 221.71 68.1023C222.234 68.0192 222.614 67.8977 222.851 67.7379C223.087 67.5781 223.206 67.3416 223.206 67.0284V66.9709C223.206 66.3636 223.014 65.8938 222.63 65.5614C222.253 65.229 221.716 65.0629 221.02 65.0629C220.285 65.0629 219.7 65.2259 219.265 65.5518C218.83 65.8714 218.543 66.2741 218.402 66.7599L214.624 66.4531C214.816 65.5582 215.193 64.7848 215.756 64.1328C216.318 63.4744 217.044 62.9695 217.932 62.6179C218.827 62.2599 219.863 62.081 221.039 62.081C221.857 62.081 222.64 62.1768 223.388 62.3686C224.142 62.5604 224.81 62.8576 225.392 63.2603C225.98 63.663 226.443 64.1808 226.782 64.8136C227.121 65.44 227.29 66.1911 227.29 67.0668V77H223.417V74.9577H223.302C223.065 75.418 222.749 75.8239 222.352 76.1754C221.956 76.5206 221.48 76.7923 220.924 76.9904C220.368 77.1822 219.725 77.2781 218.997 77.2781ZM220.166 74.4592C220.767 74.4592 221.298 74.3409 221.758 74.1044C222.218 73.8615 222.579 73.5355 222.841 73.1264C223.103 72.7173 223.234 72.2539 223.234 71.7362V70.1733C223.107 70.2564 222.931 70.3331 222.707 70.4034C222.49 70.4673 222.244 70.5281 221.969 70.5856C221.694 70.6367 221.419 70.6847 221.144 70.7294C220.869 70.7678 220.62 70.8029 220.396 70.8349C219.917 70.9052 219.498 71.017 219.14 71.1705C218.782 71.3239 218.504 71.5316 218.306 71.7937C218.108 72.0494 218.009 72.369 218.009 72.7525C218.009 73.3086 218.21 73.7337 218.613 74.0277C219.022 74.3153 219.54 74.4592 220.166 74.4592ZM237.113 77.2876C235.605 77.2876 234.307 76.968 233.22 76.3288C232.14 75.6832 231.309 74.7884 230.728 73.6442C230.152 72.5 229.865 71.1832 229.865 69.6939C229.865 68.1854 230.155 66.8622 230.737 65.7244C231.325 64.5803 232.159 63.6886 233.24 63.0494C234.32 62.4038 235.605 62.081 237.094 62.081C238.379 62.081 239.504 62.3143 240.469 62.7809C241.434 63.2475 242.198 63.9027 242.761 64.7464C243.323 65.5902 243.633 66.581 243.691 67.7188H239.836C239.728 66.9837 239.44 66.3924 238.973 65.945C238.513 65.4911 237.909 65.2642 237.161 65.2642C236.528 65.2642 235.975 65.4368 235.502 65.782C235.036 66.1207 234.671 66.6161 234.409 67.2681C234.147 67.9201 234.016 68.7095 234.016 69.6364C234.016 70.576 234.144 71.375 234.4 72.0334C234.662 72.6918 235.029 73.1935 235.502 73.5387C235.975 73.8839 236.528 74.0565 237.161 74.0565C237.628 74.0565 238.046 73.9606 238.417 73.7688C238.794 73.5771 239.104 73.299 239.347 72.9347C239.597 72.5639 239.759 72.1197 239.836 71.6019H243.691C243.627 72.7269 243.32 73.7177 242.77 74.5742C242.227 75.4244 241.476 76.0891 240.517 76.5685C239.558 77.0479 238.424 77.2876 237.113 77.2876ZM250.007 72.7621L250.016 67.8626H250.611L255.328 62.2727H260.017L253.679 69.6747H252.711L250.007 72.7621ZM246.306 77V57.3636H250.39V77H246.306ZM255.51 77L251.176 70.5856L253.9 67.6996L260.295 77H255.51ZM268.126 77.2876C266.611 77.2876 265.307 76.9808 264.214 76.3672C263.127 75.7472 262.29 74.8714 261.702 73.7401C261.114 72.6023 260.82 71.2567 260.82 69.7035C260.82 68.1886 261.114 66.859 261.702 65.7148C262.29 64.5707 263.118 63.679 264.185 63.0398C265.259 62.4006 266.518 62.081 267.963 62.081C268.934 62.081 269.839 62.2376 270.676 62.5508C271.52 62.8576 272.255 63.321 272.881 63.9411C273.514 64.5611 274.006 65.3409 274.358 66.2805C274.71 67.2138 274.885 68.3068 274.885 69.5597V70.6815H262.45V68.1502H271.041C271.041 67.5621 270.913 67.0412 270.657 66.5874C270.401 66.1335 270.047 65.7788 269.593 65.5231C269.145 65.261 268.624 65.13 268.03 65.13C267.41 65.13 266.86 65.2738 266.381 65.5614C265.908 65.8427 265.537 66.223 265.269 66.7024C265 67.1754 264.863 67.7028 264.856 68.2844V70.6911C264.856 71.4197 264.991 72.0494 265.259 72.5799C265.534 73.1104 265.921 73.5195 266.419 73.8072C266.918 74.0948 267.509 74.2386 268.193 74.2386C268.647 74.2386 269.062 74.1747 269.439 74.0469C269.816 73.919 270.139 73.7273 270.408 73.4716C270.676 73.2159 270.881 72.9027 271.021 72.532L274.799 72.7812C274.607 73.6889 274.214 74.4815 273.62 75.1591C273.032 75.8303 272.271 76.3544 271.338 76.7315C270.411 77.1023 269.34 77.2876 268.126 77.2876ZM277.551 77V62.2727H281.511V64.8423H281.664C281.933 63.9283 282.383 63.2379 283.016 62.7713C283.649 62.2983 284.378 62.0618 285.202 62.0618C285.407 62.0618 285.627 62.0746 285.864 62.1001C286.1 62.1257 286.308 62.1609 286.487 62.2056V65.8299C286.295 65.7724 286.03 65.7212 285.691 65.6765C285.352 65.6317 285.042 65.6094 284.761 65.6094C284.16 65.6094 283.623 65.7404 283.15 66.0025C282.684 66.2582 282.313 66.6161 282.038 67.0763C281.77 67.5366 281.635 68.0671 281.635 68.668V77H277.551Z" fill="white"/>
  <path fill-rule="evenodd" clip-rule="evenodd" d="M111.112 5.63832C111.796 6.62888 112.197 7.8319 112.197 9.12903C112.197 10.4262 111.796 11.6292 111.112 12.6197L109.532 11.0321C109.843 10.4679 110.019 9.81921 110.019 9.12903C110.019 8.43886 109.843 7.79013 109.532 7.22598L111.112 5.63832ZM109.572 4.09051L107.992 5.67817C107.431 5.3664 106.785 5.18894 106.099 5.18894C103.933 5.18894 102.178 6.95298 102.178 9.12903C102.178 11.3051 103.933 13.0691 106.099 13.0691C106.785 13.0691 107.431 12.8917 107.992 12.5799L109.572 14.1676C108.586 14.8551 107.389 15.2581 106.099 15.2581C102.73 15.2581 100 12.514 100 9.12903C100 5.74406 102.73 3 106.099 3C107.389 3 108.586 3.40295 109.572 4.09051Z" fill="#7FADF2"/>
  <path fill-rule="evenodd" clip-rule="evenodd" d="M111.112 5.63818C111.796 6.62874 112.197 7.83176 112.197 9.12889C112.197 10.426 111.796 11.629 111.112 12.6196L109.532 11.0319C109.843 10.4678 110.019 9.81907 110.019 9.12889C110.019 8.43872 109.843 7.78999 109.532 7.22584L111.112 5.63818Z" fill="#B8D3F4"/>
  <path fill-rule="evenodd" clip-rule="evenodd" d="M135.533 4.16125C134.345 4.16125 133.222 4.61287 132.387 5.32255V4.58061C132.387 4.38706 132.227 4.25803 132.066 4.25803H130.975C130.782 4.25803 130.654 4.41932 130.654 4.58061V18.6774C130.654 18.8387 130.782 19 130.975 19H132.098C132.259 19 132.419 18.8709 132.419 18.6774V12.7742C133.254 13.4838 134.377 13.9354 135.565 13.9354C138.261 13.9354 140.444 11.7419 140.444 9.03222C140.38 6.32255 138.197 4.16125 135.533 4.16125ZM135.533 12.1613C133.799 12.1613 132.419 10.7419 132.419 9.03222C132.419 7.29029 133.832 5.90319 135.533 5.90319C137.266 5.90319 138.646 7.32255 138.646 9.03222C138.646 10.7742 137.234 12.1613 135.533 12.1613Z" fill="#515F71"/>
  <path fill-rule="evenodd" clip-rule="evenodd" d="M156.686 4.16125C155.498 4.16125 154.407 4.58061 153.572 5.29029V4.87093C153.572 4.51609 153.283 4.22577 152.93 4.22577H152.449C152.096 4.22577 151.807 4.51609 151.807 4.87093V13.3548C151.807 13.6129 152.031 13.8387 152.288 13.8387H153.091C153.347 13.8387 153.572 13.6129 153.572 13.3548V9.32254C153.572 7.58061 154.984 5.90319 156.686 5.90319C157.809 5.90319 159.799 6.51609 159.799 9.32254V13.3548C159.799 13.6129 160.024 13.8387 160.281 13.8387H161.083C161.34 13.8387 161.565 13.6129 161.565 13.3548V9.29029C161.565 5.03222 158.226 4.16125 156.686 4.16125Z" fill="#515F71"/>
  <path fill-rule="evenodd" clip-rule="evenodd" d="M150.78 7.99997C150.298 5.70965 148.212 4.03223 145.772 4.16126C143.333 4.2903 141.343 6.22578 141.182 8.67739C140.99 11.5484 143.237 13.9355 146.029 13.9355C147.923 13.9355 149.56 12.8709 150.362 11.2903C150.491 11.0645 150.33 10.7742 150.074 10.7097L149.111 10.5161C148.95 10.4838 148.79 10.5484 148.693 10.7097C148.148 11.5806 147.153 12.1935 146.061 12.1935C145.098 12.1935 144.232 11.7419 143.654 11.0645L149.175 8.74191L150.78 7.99997ZM142.948 9.41933C142.948 9.2903 142.916 9.16126 142.916 9.03223C142.916 7.2903 144.328 5.9032 146.029 5.9032C146.992 5.9032 147.891 6.35481 148.437 7.06449L142.948 9.41933Z" fill="#515F71"/>
  <path fill-rule="evenodd" clip-rule="evenodd" d="M124.812 4.0968C122.116 4.0968 119.933 6.29035 119.933 9.00003C119.933 11.7097 122.116 13.9033 124.812 13.9033C127.508 13.9033 129.691 11.7097 129.691 9.00003C129.691 6.29035 127.508 4.0968 124.812 4.0968ZM124.812 12.1291C123.079 12.1291 121.698 10.7097 121.698 9.00003C121.698 7.25809 123.111 5.871 124.812 5.871C126.545 5.871 127.925 7.29035 127.925 9.00003C127.958 10.7097 126.545 12.1291 124.812 12.1291Z" fill="#515F71"/>
  <path fill-rule="evenodd" clip-rule="evenodd" d="M183.038 4.06445C180.342 4.06445 178.159 6.258 178.159 8.96768C178.159 11.6774 180.342 13.8709 183.038 13.8709C185.735 13.8709 187.917 11.6774 187.917 8.96768C187.917 6.258 185.735 4.06445 183.038 4.06445ZM183.038 12.0967C181.305 12.0967 179.925 10.6774 179.925 8.96768C179.925 7.22574 181.337 5.83865 183.038 5.83865C184.772 5.83865 186.152 7.258 186.152 8.96768C186.152 10.6774 184.772 12.0967 183.038 12.0967Z" fill="#515F71"/>
  <path fill-rule="evenodd" clip-rule="evenodd" d="M225.376 1.16125H224.381C224.156 1.16125 223.996 1.32255 223.996 1.54835V2.54835C223.996 2.77416 224.156 2.93545 224.381 2.93545H225.376C225.601 2.93545 225.761 2.77416 225.761 2.54835V1.54835C225.761 1.32255 225.569 1.16125 225.376 1.16125Z" fill="#515F71"/>
  <path fill-rule="evenodd" clip-rule="evenodd" d="M245.887 10.6452L244.731 10.4194C244.603 10.3871 244.475 10.4517 244.41 10.5807C243.865 11.4839 242.87 12.0968 241.746 12.0968C240.783 12.0968 239.917 11.6452 239.339 10.9678L244.86 8.6452L246.529 7.93552C246.047 5.6452 243.961 3.96778 241.521 4.09681C239.082 4.22584 237.092 6.19359 236.931 8.6452C236.739 11.5162 238.986 13.9033 241.778 13.9033C243.704 13.9033 245.373 12.7742 246.144 11.1613C246.208 10.9033 246.079 10.6775 245.887 10.6452ZM238.601 8.93552C238.601 7.19359 240.013 5.80649 241.714 5.80649C242.677 5.80649 243.576 6.2581 244.121 6.96778L238.601 9.32262V8.93552Z" fill="#515F71"/>
  <path fill-rule="evenodd" clip-rule="evenodd" d="M206.566 7.90317C206.085 5.61285 203.999 3.93543 201.559 4.06446C199.12 4.1935 197.13 6.16124 196.969 8.61285C196.776 11.4838 199.023 13.8709 201.816 13.8709C203.742 13.8709 205.411 12.7419 206.213 11.0967C206.31 10.9032 206.181 10.6774 205.989 10.6451L204.833 10.4193C204.705 10.387 204.576 10.4516 204.512 10.5806C203.966 11.4838 202.971 12.0967 201.848 12.0967C200.885 12.0967 200.018 11.6451 199.441 10.9677L204.962 8.64511L206.566 7.90317ZM198.702 9.32253C198.702 9.19349 198.67 9.06446 198.67 8.93543C198.67 7.19349 200.083 5.8064 201.784 5.8064C202.747 5.8064 203.645 6.25801 204.191 6.96769L198.702 9.32253Z" fill="#515F71"/>
  <path fill-rule="evenodd" clip-rule="evenodd" d="M190.902 0H189.747C189.586 0 189.458 0.129032 189.458 0.290323V13.4194C189.458 13.5806 189.586 13.7419 189.779 13.7419H190.902C191.063 13.7419 191.223 13.6129 191.223 13.4194V0.290323C191.223 0.129032 191.063 0 190.902 0Z" fill="#515F71"/>
  <path fill-rule="evenodd" clip-rule="evenodd" d="M194.85 0H193.695C193.534 0 193.406 0.129032 193.406 0.290323V13.4194C193.406 13.5806 193.534 13.7419 193.727 13.7419H194.85C195.011 13.7419 195.171 13.6129 195.171 13.4194V0.290323C195.139 0.129032 195.011 0 194.85 0Z" fill="#515F71"/>
  <path fill-rule="evenodd" clip-rule="evenodd" d="M225.376 4.0968H224.381C224.156 4.0968 223.996 4.25809 223.996 4.4839V13.3871C223.996 13.6129 224.156 13.7742 224.381 13.7742H225.376C225.601 13.7742 225.761 13.6129 225.761 13.3871V4.45164C225.761 4.25809 225.569 4.0968 225.376 4.0968Z" fill="#515F71"/>
  <path fill-rule="evenodd" clip-rule="evenodd" d="M222.102 4.09677H220.85C220.722 4.09677 220.593 3.96774 220.593 3.83871V0.258065C220.593 0.129032 220.465 0 220.337 0H219.085C218.956 0 218.828 0.129032 218.828 0.258065V3.83871C218.828 3.96774 218.7 4.09677 218.571 4.09677H217.319C217.191 4.09677 217.062 4.22581 217.062 4.35484V5.58064C217.062 5.70968 217.191 5.83871 217.319 5.83871H218.571C218.7 5.83871 218.828 5.96774 218.828 6.09677V13.4194C218.828 13.6129 218.988 13.7419 219.149 13.7419H220.24C220.433 13.7419 220.561 13.5806 220.561 13.4194V6.09677C220.561 5.96774 220.69 5.83871 220.818 5.83871H222.07C222.198 5.83871 222.327 5.70968 222.327 5.58064V4.32258C222.359 4.19355 222.262 4.09677 222.102 4.09677Z" fill="#515F71"/>
  <path fill-rule="evenodd" clip-rule="evenodd" d="M215.169 11.2259C215.04 11.0968 214.816 11.0968 214.687 11.2259C214.11 11.7743 213.371 12.0968 212.505 12.0968C210.675 12.0968 209.199 10.4839 209.391 8.61297C209.552 7.16135 210.739 6.00006 212.184 5.83877C213.082 5.742 213.949 6.06458 214.559 6.61297C214.752 6.77426 215.04 6.77426 215.233 6.58071L215.779 6.03232C215.971 5.83877 215.971 5.51619 215.779 5.32264C214.848 4.45168 213.564 3.96781 212.184 4.06458C209.712 4.22587 207.722 6.29039 207.626 8.80651C207.529 11.5807 209.744 13.8388 212.505 13.8388C213.821 13.8388 215.04 13.3226 215.907 12.4517C216.035 12.3226 216.035 12.0968 215.907 11.9678L215.169 11.2259Z" fill="#515F71"/>
  <path fill-rule="evenodd" clip-rule="evenodd" d="M176.747 11.2259C176.619 11.0968 176.394 11.0968 176.266 11.2259C175.688 11.7743 174.95 12.0968 174.083 12.0968C172.253 12.0968 170.777 10.4839 170.969 8.61297C171.13 7.16135 172.317 6.00006 173.762 5.83877C174.661 5.742 175.527 6.06458 176.137 6.61297C176.33 6.77426 176.619 6.77426 176.811 6.58071L177.357 6.03232C177.55 5.83877 177.55 5.51619 177.357 5.32264C176.426 4.45168 175.142 3.96781 173.762 4.06458C171.29 4.22587 169.3 6.29039 169.204 8.80651C169.108 11.5807 171.322 13.8388 174.083 13.8388C175.399 13.8388 176.619 13.3226 177.485 12.4517C177.614 12.3226 177.614 12.0968 177.485 11.9678L176.747 11.2259Z" fill="#515F71"/>
  <path fill-rule="evenodd" clip-rule="evenodd" d="M236.097 4.1936H234.524C234.492 4.1936 234.46 4.22586 234.46 4.25812L231.892 11.8388C231.86 11.9033 231.764 11.9033 231.764 11.8388L229.196 4.25812C229.196 4.22586 229.164 4.1936 229.132 4.1936H227.559C227.495 4.1936 227.462 4.25812 227.495 4.29038L230.672 13.6775C230.672 13.7097 230.704 13.742 230.736 13.742H232.919C232.951 13.742 232.983 13.7097 232.983 13.6775L236.161 4.29038C236.193 4.25812 236.161 4.1936 236.097 4.1936Z" fill="#515F71"/>
  <defs>
    <linearGradient id="paint0_linear_0_1" x1="0" y1="67.5" x2="346" y2="67.5" gradientUnits="userSpaceOnUse">
      <stop/>
      <stop offset="0.51" stop-color="#1E1E1E"/>
      <stop offset="1"/>
    </linearGradient>
    <linearGradient id="paint1_linear_0_1" x1="1.26459e-10" y1="67.5" x2="346" y2="68" gradientUnits="userSpaceOnUse">
      <stop stop-color="#1269F4"/>
      <stop offset="0.444572" stop-color="#0E50BB" stop-opacity="0"/>
      <stop offset="1" stop-color="#1269F4"/>
    </linearGradient>
  </defs>
</svg>
